<svg id="Calque_1" data-name="Calque 1" xmlns="http://www.w3.org/2000/svg" xmlns:xlink="http://www.w3.org/1999/xlink" viewBox="0 0 625.76 87.28"><defs><style>.cls-1{fill:url(#Dégradé_sans_nom_31);}.cls-2{fill:url(#Dégradé_sans_nom_31-2);}.cls-3{fill:url(#Dégradé_sans_nom_31-3);}.cls-4{fill:url(#Dégradé_sans_nom_31-4);}.cls-5{fill:url(#Dégradé_sans_nom_31-5);}.cls-6{fill:url(#Dégradé_sans_nom_31-6);}.cls-7{fill:url(#Dégradé_sans_nom_31-7);}.cls-8{fill:url(#Dégradé_sans_nom_31-8);}.cls-9{fill:url(#Dégradé_sans_nom_31-9);}.cls-10{fill:url(#Dégradé_sans_nom_31-10);}.cls-11{fill:url(#Dégradé_sans_nom_31-11);}.cls-12{fill:url(#Dégradé_sans_nom_31-12);}.cls-13{fill:url(#Dégradé_sans_nom_31-13);}.cls-14{fill:url(#Dégradé_sans_nom_31-14);}.cls-15{fill:url(#Dégradé_sans_nom_31-15);}.cls-16{fill:url(#Dégradé_sans_nom_31-16);}.cls-17{fill:url(#Dégradé_sans_nom_31-17);}.cls-18{fill:url(#Dégradé_sans_nom_31-18);}.cls-19{fill:url(#Dégradé_sans_nom_31-19);}.cls-20{fill:url(#Dégradé_sans_nom_31-20);}.cls-21{fill:url(#Dégradé_sans_nom_31-21);}.cls-22{fill:url(#Dégradé_sans_nom_31-22);}.cls-23{fill:url(#Dégradé_sans_nom_31-23);}.cls-24{fill:url(#Dégradé_sans_nom_31-24);}</style><linearGradient id="Dégradé_sans_nom_31" x1="104.7" y1="319.34" x2="116.82" y2="319.34" gradientUnits="userSpaceOnUse"><stop offset="0" stop-color="#e7000d"/><stop offset="1" stop-color="#e90113"/></linearGradient><linearGradient id="Dégradé_sans_nom_31-2" x1="118.84" y1="321.78" x2="130.87" y2="321.78" xlink:href="#Dégradé_sans_nom_31"/><linearGradient id="Dégradé_sans_nom_31-3" x1="132.72" y1="321.78" x2="144.81" y2="321.78" xlink:href="#Dégradé_sans_nom_31"/><linearGradient id="Dégradé_sans_nom_31-4" x1="147.21" y1="319.34" x2="150.6" y2="319.34" xlink:href="#Dégradé_sans_nom_31"/><linearGradient id="Dégradé_sans_nom_31-5" x1="154.07" y1="319.34" x2="157.46" y2="319.34" xlink:href="#Dégradé_sans_nom_31"/><linearGradient id="Dégradé_sans_nom_31-6" x1="160.93" y1="319.34" x2="164.32" y2="319.34" xlink:href="#Dégradé_sans_nom_31"/><linearGradient id="Dégradé_sans_nom_31-7" x1="166.4" y1="319.66" x2="173.95" y2="319.66" xlink:href="#Dégradé_sans_nom_31"/><linearGradient id="Dégradé_sans_nom_31-8" x1="175.03" y1="321.78" x2="187" y2="321.78" xlink:href="#Dégradé_sans_nom_31"/><linearGradient id="Dégradé_sans_nom_31-9" x1="189.61" y1="321.63" x2="197.91" y2="321.63" xlink:href="#Dégradé_sans_nom_31"/><linearGradient id="Dégradé_sans_nom_31-10" x1="204.59" y1="321.78" x2="217.89" y2="321.78" xlink:href="#Dégradé_sans_nom_31"/><linearGradient id="Dégradé_sans_nom_31-11" x1="219.18" y1="321.78" x2="232.4" y2="321.78" xlink:href="#Dégradé_sans_nom_31"/><linearGradient id="Dégradé_sans_nom_31-12" x1="233.86" y1="321.78" x2="245.82" y2="321.78" xlink:href="#Dégradé_sans_nom_31"/><linearGradient id="Dégradé_sans_nom_31-13" x1="254.89" y1="319.49" x2="267.4" y2="319.49" xlink:href="#Dégradé_sans_nom_31"/><linearGradient id="Dégradé_sans_nom_31-14" x1="269.75" y1="319.34" x2="281.72" y2="319.34" xlink:href="#Dégradé_sans_nom_31"/><linearGradient id="Dégradé_sans_nom_31-15" x1="284.38" y1="324.07" x2="296.87" y2="324.07" xlink:href="#Dégradé_sans_nom_31"/><linearGradient id="Dégradé_sans_nom_31-16" x1="299.56" y1="319.34" x2="302.95" y2="319.34" xlink:href="#Dégradé_sans_nom_31"/><linearGradient id="Dégradé_sans_nom_31-17" x1="305.53" y1="321.78" x2="317.56" y2="321.78" xlink:href="#Dégradé_sans_nom_31"/><linearGradient id="Dégradé_sans_nom_31-18" x1="319.41" y1="321.78" x2="331.5" y2="321.78" xlink:href="#Dégradé_sans_nom_31"/><linearGradient id="Dégradé_sans_nom_31-19" x1="332.91" y1="321.78" x2="344.87" y2="321.78" xlink:href="#Dégradé_sans_nom_31"/><linearGradient id="Dégradé_sans_nom_31-20" x1="347.38" y1="321.63" x2="366.22" y2="321.63" xlink:href="#Dégradé_sans_nom_31"/><linearGradient id="Dégradé_sans_nom_31-21" x1="368.6" y1="321.78" x2="380.57" y2="321.78" xlink:href="#Dégradé_sans_nom_31"/><linearGradient id="Dégradé_sans_nom_31-22" x1="383.31" y1="321.63" x2="394.98" y2="321.63" xlink:href="#Dégradé_sans_nom_31"/><linearGradient id="Dégradé_sans_nom_31-23" x1="397.02" y1="319.66" x2="404.57" y2="319.66" xlink:href="#Dégradé_sans_nom_31"/><linearGradient id="Dégradé_sans_nom_31-24" x1="405.45" y1="321.78" x2="417.41" y2="321.78" xlink:href="#Dégradé_sans_nom_31"/></defs><title>smart ticket</title><path d="M466.66,255.53c0-2.52,0-5,0-7.55,0-.64-.19-.9-.87-.88-1.55,0-3.09,0-4.64,0-.45,0-.67.13-.57.6a3.08,3.08,0,0,1-.9,2.72c-2.17,2.22-6.69,2.25-8.84.07a2.94,2.94,0,0,1-1-2.75c.1-.51-.11-.65-.59-.65-1.52,0-3,0-4.56,0-.85,0-.91.06-.91.9v6.51a5.18,5.18,0,0,0,0,1h2.22v2.23h-2.27a1.09,1.09,0,0,0,0,.18c0,3.91,0,7.81,0,11.71,0,6,0,12,0,18,0,3.3,0,6.6,0,9.9,0,.61.19.86.83.85,1.53,0,3,0,4.57,0,.32,0,.56,0,.63-.44a3.7,3.7,0,0,1,1.79-2.59,6.62,6.62,0,0,1,5.78-.71,4.23,4.23,0,0,1,3.27,3.31c.07.37.3.43.6.43,1.59,0,3.19,0,4.78,0,.5,0,.63-.24.63-.69,0-1.22,0-2.44,0-3.67q0-17,0-33.93v-2.34C466.65,257,466.65,256.27,466.66,255.53Zm-13.93,2.23h-3.21v-2.23h3.21Zm6.77,0h-3.29v-2.23h3.29Zm3.46,0v-2.23h3.25v2.23Z" transform="translate(-101.17 -245.77)"/><path d="M479.72,296.7q-5.86,0-5.86-6V252.82q0-6,5.86-6h46.55a5.5,5.5,0,0,1,4.37,1.78,6.51,6.51,0,0,1,0,8.45,5.51,5.51,0,0,1-4.37,1.78H485.65v25.94h40.62a5.57,5.57,0,0,1,4.37,1.74,6.07,6.07,0,0,1,1.56,4.19,6.17,6.17,0,0,1-1.56,4.26,5.56,5.56,0,0,1-4.37,1.74Z" transform="translate(-101.17 -245.77)"/><path d="M575.09,265.79h17q5.85,0,5.86,6v19.5a5.47,5.47,0,0,1-1.74,4.3,6,6,0,0,1-4.11,1.56,6.1,6.1,0,0,1-4.15-1.56,5.41,5.41,0,0,1-1.78-4.3V277.72H550.63v13.57a5.41,5.41,0,0,1-1.78,4.3,6.11,6.11,0,0,1-4.15,1.56,6,6,0,0,1-4.11-1.56,5.47,5.47,0,0,1-1.74-4.3v-39a5.62,5.62,0,0,1,1.67-4.26,5.83,5.83,0,0,1,4.19-1.59A5.92,5.92,0,0,1,549,248a5.62,5.62,0,0,1,1.67,4.26v13.34l37.88-18.09a14.12,14.12,0,0,1,2.19-.82,7.93,7.93,0,0,1,2.11-.3,5.6,5.6,0,0,1,4,1.48,6,6,0,0,1,1.59,4.6,5.33,5.33,0,0,1-.93,3.3,6.3,6.3,0,0,1-2.85,2Z" transform="translate(-101.17 -245.77)"/><path d="M610.45,296.7q-5.86,0-5.86-6V252.82q0-6,5.86-6h47.22a5.62,5.62,0,0,1,4.41,1.78,6.4,6.4,0,0,1,0,8.45,5.62,5.62,0,0,1-4.41,1.78H616.38v7H657a5.51,5.51,0,0,1,4.37,1.78,6.21,6.21,0,0,1,1.56,4.23,6.07,6.07,0,0,1-1.56,4.19,5.56,5.56,0,0,1-4.37,1.74H616.38v7h41.51a5.57,5.57,0,0,1,4.37,1.74,6.07,6.07,0,0,1,1.56,4.19,6.17,6.17,0,0,1-1.56,4.26,5.56,5.56,0,0,1-4.37,1.74Z" transform="translate(-101.17 -245.77)"/><path d="M703.22,258.82v32.47a5.47,5.47,0,0,1-1.74,4.3,6.36,6.36,0,0,1-8.34,0,5.41,5.41,0,0,1-1.78-4.3V258.82H673.57a5.5,5.5,0,0,1-4.37-1.78,6.51,6.51,0,0,1,0-8.45,5.5,5.5,0,0,1,4.37-1.78h47.37a5.62,5.62,0,0,1,4.41,1.78,6.4,6.4,0,0,1,0,8.45,5.62,5.62,0,0,1-4.41,1.78Z" transform="translate(-101.17 -245.77)"/><path d="M197.82,280.91l17.79-30.76a7.22,7.22,0,0,1,2.78-2.74,7.08,7.08,0,0,1,3.45-1,5.53,5.53,0,0,1,3.89,1.56q1.67,1.56,1.67,5.26v38a5.41,5.41,0,0,1-1.78,4.3,6,6,0,0,1-4.08,1.56,6.16,6.16,0,0,1-4.26-1.56,5.46,5.46,0,0,1-1.74-4.3V273l-12.75,20.9q-2,3.26-5,3.26t-5-3.26L180.11,273v18.31a5.41,5.41,0,0,1-1.78,4.3,6.2,6.2,0,0,1-4.23,1.56,6,6,0,0,1-4.11-1.56,5.47,5.47,0,0,1-1.74-4.3v-38q0-3.71,1.67-5.26a5.44,5.44,0,0,1,3.82-1.56,7,7,0,0,1,3.48,1,7.31,7.31,0,0,1,2.74,2.74Z" transform="translate(-101.17 -245.77)"/><path d="M239,297.14a6.15,6.15,0,0,1-4.3-1.7,5.43,5.43,0,0,1-1.85-4.15,6.36,6.36,0,0,1,1-3.26l22-36.77a13.71,13.71,0,0,1,2.89-3.52,6.16,6.16,0,0,1,4.08-1.3,6.28,6.28,0,0,1,4.08,1.26,13.83,13.83,0,0,1,3,3.56l22.09,36.84a13,13,0,0,1,.7,1.67,5,5,0,0,1,.26,1.59,5.07,5.07,0,0,1-.52,2.3,6.2,6.2,0,0,1-1.37,1.82,6.43,6.43,0,0,1-2,1.22,6.13,6.13,0,0,1-2.3.44,6,6,0,0,1-2.74-.63,5.31,5.31,0,0,1-2.15-2.11l-6.67-11H250.38l-6.52,10.9A5.41,5.41,0,0,1,239,297.14Zm23.79-34.25-6.6,11h13.19Z" transform="translate(-101.17 -245.77)"/><path d="M307.82,280.39v10.9a5.41,5.41,0,0,1-1.78,4.3,6.11,6.11,0,0,1-4.15,1.56,6,6,0,0,1-4.11-1.56,5.46,5.46,0,0,1-1.74-4.3V252.82q0-6,5.86-6h47.44q5.85,0,5.86,6v19q0,5.93-5.86,5.93H331.84l20,7.86a6.92,6.92,0,0,1,3.37,2.48,5.7,5.7,0,0,1,.67,5.45,5.65,5.65,0,0,1-3.08,3.15,6.29,6.29,0,0,1-2.52.48,8.42,8.42,0,0,1-3.19-.74Zm35.58-13.71v-7.86H307.82v7.86Z" transform="translate(-101.17 -245.77)"/><path d="M438.86,252.82a6.16,6.16,0,0,1-1.6,4.23,5.63,5.63,0,0,1-4.41,1.78H415.14v32.46a5.48,5.48,0,0,1-1.75,4.3,6,6,0,0,1-4.18,1.56,6.11,6.11,0,0,1-4.16-1.56,5.43,5.43,0,0,1-1.77-4.3V258.83h-8.39v32.46a5.48,5.48,0,0,1-1.74,4.3,6.35,6.35,0,0,1-8.34,0,5.4,5.4,0,0,1-1.78-4.3V258.83H365.24a5.5,5.5,0,0,1-4.37-1.78,6.5,6.5,0,0,1,0-8.45,5.47,5.47,0,0,1,4.37-1.78h67.61a5.6,5.6,0,0,1,4.41,1.78A6.12,6.12,0,0,1,438.86,252.82Z" transform="translate(-101.17 -245.77)"/><path d="M102.88,297.74H101.5v-.11A8.58,8.58,0,0,0,102.88,297.74Z" transform="translate(-101.17 -245.77)"/><polygon points="35.98 33.04 26.37 33.04 26.37 27.1 29.74 27.1 35.1 32.2 35.98 33.04"/><line x1="36.12" y1="33.04" x2="35.98" y2="33.04"/><path d="M162.84,271.12a2.36,2.36,0,0,1,0,.38v20q0,6.26-6.16,6.25H107.27a8.58,8.58,0,0,1-1.38-.11,5.16,5.16,0,0,1-3.13-1.7,6.5,6.5,0,0,1-1.59-4.44,6.67,6.67,0,0,1,.69-3h6.33a3.08,3.08,0,0,1-.09-.75,3.41,3.41,0,0,1,5.84-2.38,3.47,3.47,0,0,1,1,2.38,4.55,4.55,0,0,1-.07.75h23.94a3.08,3.08,0,0,1-.09-.75,3.4,3.4,0,1,1,6.8,0,2.66,2.66,0,0,1-.09.75h3.33v-4.76l-6-5.71-6.78-6.48L134.38,270H101.17V252q0-6.26,6.1-6.26H156.7a5.72,5.72,0,0,1,4.5,1.86,6.66,6.66,0,0,1,0,8.8,5.46,5.46,0,0,1-3.7,1.8h-35l-.09,0h-1.62a3.61,3.61,0,0,0-2.8,3.52.28.28,0,0,0,0,.09c0,.12,0,.23,0,.34a3.3,3.3,0,0,0,.13.64,3.5,3.5,0,0,0,2.72,2.47,3.86,3.86,0,0,0,.49.06h36.7a5.78,5.78,0,0,1,1.94.87s0,0,0,0a5,5,0,0,1,2.73,4.4c0,.12,0,.26,0,.39A.48.48,0,0,1,162.84,271.12Z" transform="translate(-101.17 -245.77)"/><line x1="19.66" y1="12.43" x2="18.22" y2="12.43"/><path d="M122.45,258.2h-1.62a3.69,3.69,0,0,1,1.62,0Z" transform="translate(-101.17 -245.77)"/><path class="cls-1" d="M104.7,328.18V310.5h12.12v3h-8.55v4.18h7.38v3h-7.38v7.51Z" transform="translate(-101.17 -245.77)"/><path class="cls-2" d="M122.27,319.28l-3.08-.55A4.79,4.79,0,0,1,121,316a6.53,6.53,0,0,1,3.76-.89,8.11,8.11,0,0,1,3.38.54,3.37,3.37,0,0,1,1.56,1.36,7,7,0,0,1,.45,3l0,4a13.74,13.74,0,0,0,.16,2.49,7.27,7.27,0,0,0,.61,1.72h-3.35q-.13-.34-.33-1-.08-.3-.12-.4a6.1,6.1,0,0,1-1.86,1.27,5.32,5.32,0,0,1-2.11.42A4.36,4.36,0,0,1,120,327.4a3.57,3.57,0,0,1-1.14-2.71,3.64,3.64,0,0,1,.52-1.94,3.39,3.39,0,0,1,1.45-1.3,11.37,11.37,0,0,1,2.7-.79,18.45,18.45,0,0,0,3.29-.83v-.34a1.75,1.75,0,0,0-.48-1.39,2.89,2.89,0,0,0-1.82-.42,2.43,2.43,0,0,0-1.41.36A2.47,2.47,0,0,0,122.27,319.28ZM126.8,322q-.65.22-2.06.52a6.2,6.2,0,0,0-1.85.59,1.41,1.41,0,0,0-.66,1.19,1.66,1.66,0,0,0,.53,1.23,1.85,1.85,0,0,0,1.35.52,2.93,2.93,0,0,0,1.75-.6,2.12,2.12,0,0,0,.81-1.12,6.69,6.69,0,0,0,.13-1.65Z" transform="translate(-101.17 -245.77)"/><path class="cls-3" d="M144.64,319.16l-3.34.6a2.43,2.43,0,0,0-.77-1.51,2.31,2.31,0,0,0-1.55-.51,2.53,2.53,0,0,0-2,.87,4.48,4.48,0,0,0-.75,2.92,5.18,5.18,0,0,0,.77,3.22,2.51,2.51,0,0,0,2.06.94,2.28,2.28,0,0,0,1.58-.55,3.3,3.3,0,0,0,.87-1.89l3.33.57a5.9,5.9,0,0,1-2,3.46,6.16,6.16,0,0,1-3.94,1.17,5.86,5.86,0,0,1-4.48-1.77,8.08,8.08,0,0,1,0-9.85,6,6,0,0,1,4.53-1.77,6.19,6.19,0,0,1,3.72,1A5.58,5.58,0,0,1,144.64,319.16Z" transform="translate(-101.17 -245.77)"/><path class="cls-4" d="M147.21,313.64V310.5h3.39v3.14Zm0,14.54V315.37h3.39v12.81Z" transform="translate(-101.17 -245.77)"/><path class="cls-5" d="M154.07,328.18V310.5h3.39v17.68Z" transform="translate(-101.17 -245.77)"/><path class="cls-6" d="M160.93,313.64V310.5h3.39v3.14Zm0,14.54V315.37h3.39v12.81Z" transform="translate(-101.17 -245.77)"/><path class="cls-7" d="M173.67,315.37v2.7h-2.32v5.16a12.8,12.8,0,0,0,.07,1.83.74.74,0,0,0,.3.43,1,1,0,0,0,.57.17,4.38,4.38,0,0,0,1.36-.33l.29,2.63a6.75,6.75,0,0,1-2.68.51,4.24,4.24,0,0,1-1.65-.31,2.4,2.4,0,0,1-1.08-.8,3.13,3.13,0,0,1-.48-1.32,16.44,16.44,0,0,1-.11-2.39v-5.58H166.4v-2.7H168v-2.54l3.4-2v4.52Z" transform="translate(-101.17 -245.77)"/><path class="cls-8" d="M183.44,324.11l3.38.57a5.54,5.54,0,0,1-2.06,2.83,6,6,0,0,1-3.52,1,5.73,5.73,0,0,1-4.94-2.18,7.33,7.33,0,0,1-1.27-4.41,7.07,7.07,0,0,1,1.66-5,5.48,5.48,0,0,1,4.21-1.8,5.69,5.69,0,0,1,4.51,1.89q1.65,1.89,1.58,5.78H178.5a3.43,3.43,0,0,0,.82,2.35,2.57,2.57,0,0,0,2,.84,2.07,2.07,0,0,0,1.34-.43A2.68,2.68,0,0,0,183.44,324.11Zm.19-3.42a3.26,3.26,0,0,0-.76-2.24,2.33,2.33,0,0,0-1.76-.77,2.36,2.36,0,0,0-1.83.81,3.13,3.13,0,0,0-.71,2.2Z" transform="translate(-101.17 -245.77)"/><path class="cls-9" d="M193,328.18h-3.39V315.37h3.15v1.82a5.48,5.48,0,0,1,1.45-1.7,2.67,2.67,0,0,1,1.47-.41,4.3,4.3,0,0,1,2.23.64l-1,3a3,3,0,0,0-1.59-.56,1.88,1.88,0,0,0-1.21.39,2.68,2.68,0,0,0-.78,1.42,20.13,20.13,0,0,0-.28,4.29Z" transform="translate(-101.17 -245.77)"/><path class="cls-10" d="M209.75,328.18l-5.16-12.81h3.56l2.41,6.54.7,2.18q.28-.83.35-1.1.17-.54.36-1.09l2.44-6.54h3.49l-5.09,12.81Z" transform="translate(-101.17 -245.77)"/><path class="cls-11" d="M219.18,321.6a6.92,6.92,0,0,1,.83-3.27,5.71,5.71,0,0,1,2.36-2.41,7,7,0,0,1,3.41-.83,6.39,6.39,0,0,1,4.76,1.89,6.52,6.52,0,0,1,1.86,4.77,6.6,6.6,0,0,1-1.88,4.82,6.34,6.34,0,0,1-4.72,1.91,7.43,7.43,0,0,1-3.36-.8,5.46,5.46,0,0,1-2.43-2.33A7.77,7.77,0,0,1,219.18,321.6Zm3.47.18a4.24,4.24,0,0,0,.9,2.92,3,3,0,0,0,4.46,0,4.3,4.3,0,0,0,.9-2.94,4.22,4.22,0,0,0-.9-2.89,3,3,0,0,0-4.46,0A4.24,4.24,0,0,0,222.66,321.78Z" transform="translate(-101.17 -245.77)"/><path class="cls-12" d="M233.86,324.53l3.4-.52a2.49,2.49,0,0,0,.88,1.5A3,3,0,0,0,240,326a3.35,3.35,0,0,0,2-.48,1.08,1.08,0,0,0,.45-.9.89.89,0,0,0-.24-.64,2.7,2.7,0,0,0-1.13-.45,18.27,18.27,0,0,1-5.2-1.65,3.3,3.3,0,0,1-1.52-2.88,3.55,3.55,0,0,1,1.31-2.8,6.14,6.14,0,0,1,4.08-1.13,7.11,7.11,0,0,1,3.91.86,4.38,4.38,0,0,1,1.76,2.53l-3.2.59a2,2,0,0,0-.78-1.15,2.85,2.85,0,0,0-1.63-.4,3.68,3.68,0,0,0-1.92.37.8.8,0,0,0-.39.69.75.75,0,0,0,.34.62,12.74,12.74,0,0,0,3.17,1,9.43,9.43,0,0,1,3.78,1.51,3.13,3.13,0,0,1,1.06,2.52,3.87,3.87,0,0,1-1.47,3,6.52,6.52,0,0,1-4.35,1.27,7.15,7.15,0,0,1-4.14-1.06A4.89,4.89,0,0,1,233.86,324.53Z" transform="translate(-101.17 -245.77)"/><path class="cls-13" d="M267.4,328.18h-3.15V326.3a5.08,5.08,0,0,1-1.85,1.63,4.75,4.75,0,0,1-2.15.54,4.88,4.88,0,0,1-3.78-1.78,7.23,7.23,0,0,1-1.57-5,7.15,7.15,0,0,1,1.53-5,5,5,0,0,1,3.87-1.69,4.8,4.8,0,0,1,3.71,1.79V310.5h3.39Zm-9-6.68a5.86,5.86,0,0,0,.57,3,2.56,2.56,0,0,0,2.29,1.33,2.5,2.5,0,0,0,2-1,4.59,4.59,0,0,0,.82-3,5,5,0,0,0-.8-3.18,2.52,2.52,0,0,0-2-1,2.55,2.55,0,0,0-2,1A4.34,4.34,0,0,0,258.35,321.5Z" transform="translate(-101.17 -245.77)"/><path class="cls-14" d="M278.15,324.11l3.38.57a5.54,5.54,0,0,1-2.06,2.83,6,6,0,0,1-3.52,1,5.73,5.73,0,0,1-4.94-2.18,7.33,7.33,0,0,1-1.27-4.41,7.07,7.07,0,0,1,1.66-5,5.48,5.48,0,0,1,4.21-1.8,5.69,5.69,0,0,1,4.51,1.89q1.65,1.89,1.58,5.78h-8.49a3.43,3.43,0,0,0,.82,2.35,2.57,2.57,0,0,0,2,.84,2.07,2.07,0,0,0,1.34-.43A2.68,2.68,0,0,0,278.15,324.11Zm.19-3.42a3.26,3.26,0,0,0-.76-2.24,2.33,2.33,0,0,0-1.76-.77,2.36,2.36,0,0,0-1.83.81,3.13,3.13,0,0,0-.71,2.2ZM274,313.81l1.66-3.61h3.8l-3.32,3.61Z" transform="translate(-101.17 -245.77)"/><path class="cls-15" d="M284.38,315.37h3.16v1.88a4.73,4.73,0,0,1,1.66-1.57,4.59,4.59,0,0,1,2.33-.6,4.88,4.88,0,0,1,3.79,1.75,7.08,7.08,0,0,1,1.56,4.87,7.29,7.29,0,0,1-1.57,5,4.89,4.89,0,0,1-3.8,1.78,4.32,4.32,0,0,1-1.92-.42,6.48,6.48,0,0,1-1.82-1.45v6.45h-3.39Zm3.35,6.19a4.94,4.94,0,0,0,.86,3.19,2.62,2.62,0,0,0,2.09,1,2.45,2.45,0,0,0,2-.95,4.88,4.88,0,0,0,.78-3.11,4.63,4.63,0,0,0-.81-3,2.5,2.5,0,0,0-2-1,2.6,2.6,0,0,0-2.06,1A4.27,4.27,0,0,0,287.73,321.56Z" transform="translate(-101.17 -245.77)"/><path class="cls-16" d="M299.56,328.18V310.5H303v17.68Z" transform="translate(-101.17 -245.77)"/><path class="cls-17" d="M309,319.28l-3.08-.55a4.79,4.79,0,0,1,1.79-2.75,6.53,6.53,0,0,1,3.76-.89,8.11,8.11,0,0,1,3.38.54,3.37,3.37,0,0,1,1.56,1.36,7,7,0,0,1,.45,3l0,4a13.74,13.74,0,0,0,.16,2.49,7.27,7.27,0,0,0,.61,1.72H314.2q-.13-.34-.33-1-.08-.3-.12-.4A6.1,6.1,0,0,1,311.9,328a5.32,5.32,0,0,1-2.11.42,4.36,4.36,0,0,1-3.12-1.07,3.57,3.57,0,0,1-1.14-2.71,3.64,3.64,0,0,1,.52-1.94,3.39,3.39,0,0,1,1.45-1.3,11.37,11.37,0,0,1,2.7-.79,18.45,18.45,0,0,0,3.29-.83v-.34a1.75,1.75,0,0,0-.48-1.39,2.89,2.89,0,0,0-1.82-.42,2.43,2.43,0,0,0-1.41.36A2.47,2.47,0,0,0,309,319.28Zm4.53,2.75q-.65.22-2.06.52a6.2,6.2,0,0,0-1.85.59,1.41,1.41,0,0,0-.66,1.19,1.66,1.66,0,0,0,.53,1.23,1.85,1.85,0,0,0,1.35.52,2.93,2.93,0,0,0,1.75-.6,2.12,2.12,0,0,0,.81-1.12,6.69,6.69,0,0,0,.13-1.65Z" transform="translate(-101.17 -245.77)"/><path class="cls-18" d="M331.33,319.16l-3.34.6a2.43,2.43,0,0,0-.77-1.51,2.31,2.31,0,0,0-1.55-.51,2.53,2.53,0,0,0-2,.87,4.48,4.48,0,0,0-.75,2.92,5.18,5.18,0,0,0,.77,3.22,2.51,2.51,0,0,0,2.06.94,2.28,2.28,0,0,0,1.58-.55,3.3,3.3,0,0,0,.87-1.89l3.33.57a5.9,5.9,0,0,1-2,3.46,6.16,6.16,0,0,1-3.94,1.17,5.86,5.86,0,0,1-4.48-1.77,8.08,8.08,0,0,1,0-9.85,6,6,0,0,1,4.53-1.77,6.19,6.19,0,0,1,3.72,1A5.58,5.58,0,0,1,331.33,319.16Z" transform="translate(-101.17 -245.77)"/><path class="cls-19" d="M341.31,324.11l3.38.57a5.54,5.54,0,0,1-2.06,2.83,6,6,0,0,1-3.52,1,5.73,5.73,0,0,1-4.94-2.18,7.33,7.33,0,0,1-1.27-4.41,7.07,7.07,0,0,1,1.66-5,5.48,5.48,0,0,1,4.21-1.8,5.69,5.69,0,0,1,4.51,1.89q1.65,1.89,1.58,5.78h-8.49a3.43,3.43,0,0,0,.82,2.35,2.57,2.57,0,0,0,2,.84,2.07,2.07,0,0,0,1.34-.43A2.68,2.68,0,0,0,341.31,324.11Zm.19-3.42a3.26,3.26,0,0,0-.76-2.24,2.33,2.33,0,0,0-1.76-.77,2.36,2.36,0,0,0-1.83.81,3.13,3.13,0,0,0-.71,2.2Z" transform="translate(-101.17 -245.77)"/><path class="cls-20" d="M347.38,315.37h3.12v1.75a5,5,0,0,1,4-2,4.3,4.3,0,0,1,2.13.51,3.89,3.89,0,0,1,1.48,1.53,5.92,5.92,0,0,1,1.82-1.53,4.47,4.47,0,0,1,2.09-.51,4.65,4.65,0,0,1,2.39.57,3.51,3.51,0,0,1,1.46,1.68,7.29,7.29,0,0,1,.35,2.65v8.19h-3.39v-7.32a5.45,5.45,0,0,0-.35-2.46,1.6,1.6,0,0,0-1.45-.72,2.31,2.31,0,0,0-1.34.43,2.41,2.41,0,0,0-.9,1.27,9.15,9.15,0,0,0-.28,2.65v6.15h-3.39v-7a9.73,9.73,0,0,0-.18-2.41,1.53,1.53,0,0,0-.56-.81,1.77,1.77,0,0,0-1-.27,2.47,2.47,0,0,0-1.41.42,2.32,2.32,0,0,0-.9,1.22,9.07,9.07,0,0,0-.27,2.64v6.22h-3.39Z" transform="translate(-101.17 -245.77)"/><path class="cls-21" d="M377,324.11l3.38.57a5.54,5.54,0,0,1-2.06,2.83,6,6,0,0,1-3.52,1,5.73,5.73,0,0,1-4.94-2.18,7.33,7.33,0,0,1-1.27-4.41,7.07,7.07,0,0,1,1.66-5,5.48,5.48,0,0,1,4.21-1.8A5.69,5.69,0,0,1,379,317q1.65,1.89,1.58,5.78h-8.49a3.43,3.43,0,0,0,.82,2.35,2.57,2.57,0,0,0,2,.84,2.07,2.07,0,0,0,1.34-.43A2.68,2.68,0,0,0,377,324.11Zm.19-3.42a3.26,3.26,0,0,0-.76-2.24,2.33,2.33,0,0,0-1.76-.77,2.36,2.36,0,0,0-1.83.81,3.13,3.13,0,0,0-.71,2.2Z" transform="translate(-101.17 -245.77)"/><path class="cls-22" d="M395,328.18h-3.39v-6.54a10.12,10.12,0,0,0-.22-2.68,1.88,1.88,0,0,0-.71-.95,2,2,0,0,0-1.18-.34,2.72,2.72,0,0,0-1.58.48,2.43,2.43,0,0,0-1,1.28,11,11,0,0,0-.26,2.94v5.8h-3.39V315.37h3.15v1.88a5.25,5.25,0,0,1,6.27-1.77,3.43,3.43,0,0,1,1.4,1,3.74,3.74,0,0,1,.66,1.42,10.58,10.58,0,0,1,.19,2.28Z" transform="translate(-101.17 -245.77)"/><path class="cls-23" d="M404.29,315.37v2.7H402v5.16a12.8,12.8,0,0,0,.07,1.83.74.74,0,0,0,.3.43,1,1,0,0,0,.57.17,4.38,4.38,0,0,0,1.36-.33l.29,2.63a6.75,6.75,0,0,1-2.68.51,4.24,4.24,0,0,1-1.65-.31,2.4,2.4,0,0,1-1.08-.8,3.13,3.13,0,0,1-.48-1.32,16.44,16.44,0,0,1-.11-2.39v-5.58H397v-2.7h1.56v-2.54l3.4-2v4.52Z" transform="translate(-101.17 -245.77)"/><path class="cls-24" d="M405.45,324.53l3.4-.52a2.49,2.49,0,0,0,.88,1.5,3,3,0,0,0,1.86.51,3.35,3.35,0,0,0,2-.48,1.08,1.08,0,0,0,.45-.9.89.89,0,0,0-.24-.64,2.7,2.7,0,0,0-1.13-.45,18.27,18.27,0,0,1-5.2-1.65,3.3,3.3,0,0,1-1.52-2.88,3.55,3.55,0,0,1,1.31-2.8,6.14,6.14,0,0,1,4.08-1.13,7.11,7.11,0,0,1,3.91.86,4.38,4.38,0,0,1,1.76,2.53l-3.2.59a2,2,0,0,0-.78-1.15,2.85,2.85,0,0,0-1.63-.4,3.68,3.68,0,0,0-1.92.37.8.8,0,0,0-.39.69.75.75,0,0,0,.34.62,12.74,12.74,0,0,0,3.17,1,9.43,9.43,0,0,1,3.78,1.51,3.13,3.13,0,0,1,1.06,2.52,3.87,3.87,0,0,1-1.47,3,6.52,6.52,0,0,1-4.35,1.27,7.15,7.15,0,0,1-4.14-1.06A4.89,4.89,0,0,1,405.45,324.53Z" transform="translate(-101.17 -245.77)"/></svg>