<svg xmlns="http://www.w3.org/2000/svg" xmlns:xlink="http://www.w3.org/1999/xlink" width="841.89" height="595.28" viewBox="0 0 841.89 595.28">
  <defs>
    <clipPath id="clip-Plan_de_travail_1">
      <rect width="841.89" height="595.28"/>
    </clipPath>
  </defs>
  <g id="Plan_de_travail_1" data-name="Plan de travail 1" clip-path="url(#clip-Plan_de_travail_1)">
    <rect width="841.89" height="595.28" fill="rgba(255,255,255,0)"/>
    <g id="Group_1" data-name="Group 1">
      <path id="Path_1" data-name="Path 1" d="M522.505,236.688c-.01-2.52,0-5.03.01-7.55,0-.64-.19-.9-.87-.88-1.55.04-3.09.03-4.64.02-.45-.01-.67.13-.57.6a3.079,3.079,0,0,1-.9,2.72c-2.17,2.22-6.69,2.25-8.84.07a2.936,2.936,0,0,1-1-2.75c.1-.51-.11-.65-.59-.65-1.52.02-3.04.02-4.56.02-.85,0-.91.06-.91.9v6.51a5.179,5.179,0,0,0,.05.99h2.22v2.23h-2.27a1.086,1.086,0,0,0-.01.18c.01,3.91-.01,7.81-.01,11.71,0,6,.02,12,.02,18,0,3.3.01,6.6-.01,9.9,0,.61.19.86.83.85,1.53-.04,3.05-.02,4.57-.02.32,0,.56,0,.63-.44a3.7,3.7,0,0,1,1.79-2.59,6.618,6.618,0,0,1,5.78-.71,4.229,4.229,0,0,1,3.27,3.31c.07.37.3.43.6.43,1.59,0,3.19-.01,4.78.01.5,0,.63-.24.63-.69-.01-1.22,0-2.44,0-3.67q0-16.965-.01-33.93v-2.34C522.495,238.178,522.495,237.428,522.505,236.688Zm-13.93,2.23h-3.21v-2.23h3.21Zm6.77,0h-3.29v-2.23h3.29Zm3.46,0v-2.23h3.25v2.23Z" fill="#fff"/>
      <path id="Path_2" data-name="Path 2" d="M470.977,239.976v32.467a5.469,5.469,0,0,1-1.743,4.3,6.361,6.361,0,0,1-8.339,0,5.412,5.412,0,0,1-1.779-4.3V239.976h-17.79a5.506,5.506,0,0,1-4.374-1.779,6.511,6.511,0,0,1,0-8.45,5.5,5.5,0,0,1,4.374-1.78h47.366a5.617,5.617,0,0,1,4.411,1.78,6.4,6.4,0,0,1,0,8.45,5.623,5.623,0,0,1-4.411,1.779Z" fill="#fff"/>
      <path id="Path_3" data-name="Path 3" d="M535.57,277.854q-5.856,0-5.856-6V233.971q0-6,5.856-6h46.551a5.5,5.5,0,0,1,4.374,1.78,6.511,6.511,0,0,1,0,8.45,5.508,5.508,0,0,1-4.374,1.779H541.5V265.92h40.621a5.567,5.567,0,0,1,4.374,1.742,6.073,6.073,0,0,1,1.557,4.188,6.167,6.167,0,0,1-1.557,4.262,5.56,5.56,0,0,1-4.374,1.742Z" fill="#fff"/>
      <path id="Path_4" data-name="Path 4" d="M630.934,246.944h17.048q5.856,0,5.857,6v19.495a5.472,5.472,0,0,1-1.742,4.3,5.975,5.975,0,0,1-4.115,1.557,6.1,6.1,0,0,1-4.15-1.557,5.408,5.408,0,0,1-1.779-4.3V258.878H606.472v13.565a5.411,5.411,0,0,1-1.779,4.3,6.107,6.107,0,0,1-4.151,1.557,5.97,5.97,0,0,1-4.114-1.557,5.469,5.469,0,0,1-1.742-4.3v-38.99a5.626,5.626,0,0,1,1.667-4.263,5.83,5.83,0,0,1,4.189-1.594,5.929,5.929,0,0,1,4.263,1.594,5.626,5.626,0,0,1,1.667,4.263V246.8l37.879-18.087a14.048,14.048,0,0,1,2.186-.816,7.941,7.941,0,0,1,2.112-.3,5.6,5.6,0,0,1,3.966,1.483,6,6,0,0,1,1.594,4.6,5.329,5.329,0,0,1-.927,3.3,6.3,6.3,0,0,1-2.853,1.965Z" fill="#fff"/>
      <path id="Path_5" data-name="Path 5" d="M666.292,277.854q-5.856,0-5.856-6V233.971q0-6,5.856-6h47.219a5.618,5.618,0,0,1,4.41,1.78,6.4,6.4,0,0,1,0,8.45,5.624,5.624,0,0,1-4.41,1.779H672.222v6.968h40.621a5.507,5.507,0,0,1,4.374,1.778,6.211,6.211,0,0,1,1.556,4.226,6.07,6.07,0,0,1-1.556,4.188,5.56,5.56,0,0,1-4.374,1.742H672.222v7.042h41.51a5.567,5.567,0,0,1,4.374,1.742,6.068,6.068,0,0,1,1.557,4.188,6.162,6.162,0,0,1-1.557,4.262,5.56,5.56,0,0,1-4.374,1.742Z" fill="#fff"/>
      <path id="Path_6" data-name="Path 6" d="M759.061,239.976v32.467a5.472,5.472,0,0,1-1.742,4.3,6.361,6.361,0,0,1-8.339,0,5.412,5.412,0,0,1-1.779-4.3V239.976h-17.79a5.506,5.506,0,0,1-4.374-1.779,6.511,6.511,0,0,1,0-8.45,5.5,5.5,0,0,1,4.374-1.78h47.366a5.613,5.613,0,0,1,4.41,1.78,6.4,6.4,0,0,1,0,8.45,5.619,5.619,0,0,1-4.41,1.779Z" fill="#fff"/>
    </g>
    <g id="Group_5" data-name="Group 5">
      <path id="Path_7" data-name="Path 7" d="M194.666,262.065,212.457,231.3a7.222,7.222,0,0,1,2.78-2.743,7.088,7.088,0,0,1,3.447-.964,5.527,5.527,0,0,1,3.891,1.557q1.668,1.557,1.668,5.264v38.026a5.412,5.412,0,0,1-1.779,4.3,6.014,6.014,0,0,1-4.077,1.557,6.164,6.164,0,0,1-4.262-1.557,5.465,5.465,0,0,1-1.742-4.3v-18.31l-12.75,20.9q-2,3.263-4.967,3.261-3.112,0-5.04-3.261l-12.675-20.9v18.31a5.412,5.412,0,0,1-1.78,4.3,6.2,6.2,0,0,1-4.225,1.557,5.97,5.97,0,0,1-4.114-1.557,5.468,5.468,0,0,1-1.742-4.3V234.417q0-3.707,1.668-5.264a5.44,5.44,0,0,1,3.818-1.557,7.021,7.021,0,0,1,3.484.964A7.314,7.314,0,0,1,176.8,231.3Z" fill="#fff"/>
      <path id="Path_8" data-name="Path 8" d="M235.806,278.3a6.15,6.15,0,0,1-4.3-1.705,5.427,5.427,0,0,1-1.854-4.151,6.363,6.363,0,0,1,.964-3.262l22.015-36.766a13.72,13.72,0,0,1,2.891-3.521,6.165,6.165,0,0,1,4.078-1.3,6.278,6.278,0,0,1,4.076,1.261,13.834,13.834,0,0,1,2.966,3.558l22.089,36.841a12.989,12.989,0,0,1,.7,1.668,5,5,0,0,1,.26,1.593,5.073,5.073,0,0,1-.519,2.3,6.206,6.206,0,0,1-1.372,1.817,6.443,6.443,0,0,1-1.964,1.222,6.126,6.126,0,0,1-2.3.445,6.046,6.046,0,0,1-2.743-.63,5.3,5.3,0,0,1-2.149-2.113l-6.672-10.97H247.221l-6.523,10.9A5.406,5.406,0,0,1,235.806,278.3Zm23.8-34.247L253,255.023H266.2Z" fill="#fff"/>
      <path id="Path_9" data-name="Path 9" d="M304.67,261.547v10.9a5.412,5.412,0,0,1-1.779,4.3,6.107,6.107,0,0,1-4.151,1.557,5.969,5.969,0,0,1-4.114-1.557,5.465,5.465,0,0,1-1.742-4.3V233.971q0-6,5.856-6h47.441q5.855,0,5.856,6v18.977q0,5.931-5.856,5.93H328.687l20.014,7.857a6.929,6.929,0,0,1,3.373,2.483,5.7,5.7,0,0,1,.667,5.449,5.653,5.653,0,0,1-3.076,3.15,6.292,6.292,0,0,1-2.52.482,8.422,8.422,0,0,1-3.188-.742Zm35.581-13.714v-7.857H304.67v7.857Z" fill="#fff"/>
      <path id="Path_10" data-name="Path 10" d="M391.731,239.976v32.467a5.468,5.468,0,0,1-1.742,4.3,6.361,6.361,0,0,1-8.339,0,5.412,5.412,0,0,1-1.779-4.3V239.976h-17.79a5.506,5.506,0,0,1-4.374-1.779,6.514,6.514,0,0,1,0-8.45,5.5,5.5,0,0,1,4.374-1.78h47.366a5.613,5.613,0,0,1,4.41,1.78,6.4,6.4,0,0,1,0,8.45,5.619,5.619,0,0,1-4.41,1.779Z" fill="#fff"/>
      <g id="Group_4" data-name="Group 4">
        <g id="Group_3" data-name="Group 3">
          <g id="Group_2" data-name="Group 2">
            <path id="Path_11" data-name="Path 11" d="M99.722,278.9h-1.38v-.11A8.579,8.579,0,0,0,99.722,278.9Z" fill="#fff"/>
            <path id="Path_12" data-name="Path 12" d="M134,259.966h-9.61v-5.94h3.37l5.36,5.1Z" fill="#fff"/>
            <line id="Line_1" data-name="Line 1" x1="0.136" transform="translate(134 259.967)"/>
          </g>
        </g>
        <path id="Path_13" data-name="Path 13" d="M159.689,252.276a2.357,2.357,0,0,1,.02.38v19.99q0,6.255-6.16,6.25h-49.43a8.579,8.579,0,0,1-1.38-.11,5.155,5.155,0,0,1-3.13-1.7,6.5,6.5,0,0,1-1.59-4.44,6.674,6.674,0,0,1,.69-3.05h6.33a3.081,3.081,0,0,1-.09-.75,3.408,3.408,0,0,1,5.84-2.38,3.47,3.47,0,0,1,.95,2.38,4.544,4.544,0,0,1-.07.75h23.94a3.081,3.081,0,0,1-.09-.75,3.4,3.4,0,1,1,6.8,0,2.66,2.66,0,0,1-.09.75h3.33v-4.76l-5.99-5.71-6.78-6.48-1.56-1.48H98.019v-17.98q0-6.255,6.1-6.26h49.43a5.723,5.723,0,0,1,4.5,1.86,6.661,6.661,0,0,1,0,8.8,5.463,5.463,0,0,1-3.7,1.8h-34.96l-.09-.03h-1.62a3.615,3.615,0,0,0-2.8,3.52.277.277,0,0,0,.01.09c0,.12.01.23.02.34a3.3,3.3,0,0,0,.13.64,3.5,3.5,0,0,0,2.72,2.47,3.859,3.859,0,0,0,.49.06.449.449,0,0,0,.11.01h36.59a5.777,5.777,0,0,1,1.94.87c.02,0,.02,0,.02.01a5.049,5.049,0,0,1,2.73,4.4c.03.12.03.26.05.39A.481.481,0,0,1,159.689,252.276Z" fill="#fff"/>
        <line id="Line_2" data-name="Line 2" x1="1.44" transform="translate(116.239 239.356)" fill="none"/>
        <path id="Path_14" data-name="Path 14" d="M119.3,239.356h-1.62a3.69,3.69,0,0,1,1.62,0Z" fill="none"/>
      </g>
    </g>
    <g id="Group_6" data-name="Group 6">
      <path id="Path_15" data-name="Path 15" d="M101.543,309.336v-17.68h12.12v2.991h-8.551v4.185h7.381v2.99h-7.381v7.514Z" fill="#fff"/>
      <path id="Path_16" data-name="Path 16" d="M119.114,300.436l-3.075-.555a4.787,4.787,0,0,1,1.785-2.75,6.537,6.537,0,0,1,3.762-.892,8.124,8.124,0,0,1,3.377.536,3.375,3.375,0,0,1,1.562,1.363,7,7,0,0,1,.452,3.033l-.036,3.956a13.674,13.674,0,0,0,.163,2.49,7.219,7.219,0,0,0,.609,1.719H124.36q-.133-.338-.325-1c-.057-.2-.1-.334-.121-.4a6.1,6.1,0,0,1-1.857,1.266,5.33,5.33,0,0,1-2.111.422,4.359,4.359,0,0,1-3.117-1.073,3.566,3.566,0,0,1-1.14-2.713,3.641,3.641,0,0,1,.519-1.936,3.379,3.379,0,0,1,1.453-1.3,11.32,11.32,0,0,1,2.695-.79,18.5,18.5,0,0,0,3.292-.832v-.338a1.752,1.752,0,0,0-.482-1.393,2.888,2.888,0,0,0-1.821-.416,2.427,2.427,0,0,0-1.411.356A2.468,2.468,0,0,0,119.114,300.436Zm4.534,2.75q-.651.216-2.062.518a6.221,6.221,0,0,0-1.845.591,1.413,1.413,0,0,0-.663,1.194,1.661,1.661,0,0,0,.53,1.23,1.856,1.856,0,0,0,1.351.518,2.935,2.935,0,0,0,1.749-.6,2.128,2.128,0,0,0,.808-1.122,6.724,6.724,0,0,0,.132-1.653Z" fill="#fff"/>
      <path id="Path_17" data-name="Path 17" d="M141.485,300.315l-3.34.6a2.43,2.43,0,0,0-.766-1.508,2.312,2.312,0,0,0-1.55-.506,2.532,2.532,0,0,0-2.02.874,4.484,4.484,0,0,0-.754,2.925,5.185,5.185,0,0,0,.766,3.22,2.515,2.515,0,0,0,2.056.94,2.278,2.278,0,0,0,1.58-.549,3.3,3.3,0,0,0,.869-1.886l3.328.566a5.9,5.9,0,0,1-1.99,3.461,6.157,6.157,0,0,1-3.943,1.17,5.867,5.867,0,0,1-4.481-1.772,8.079,8.079,0,0,1,.007-9.847,5.951,5.951,0,0,1,4.534-1.767,6.187,6.187,0,0,1,3.72,1.007A5.574,5.574,0,0,1,141.485,300.315Z" fill="#fff"/>
      <path id="Path_18" data-name="Path 18" d="M144.054,294.792v-3.136h3.389v3.136Zm0,14.544V296.528h3.389v12.808Z" fill="#fff"/>
      <path id="Path_19" data-name="Path 19" d="M150.916,309.336v-17.68H154.3v17.68Z" fill="#fff"/>
      <path id="Path_20" data-name="Path 20" d="M157.778,294.792v-3.136h3.389v3.136Zm0,14.544V296.528h3.389v12.808Z" fill="#fff"/>
      <path id="Path_21" data-name="Path 21" d="M170.514,296.528v2.7H168.2v5.163a12.658,12.658,0,0,0,.067,1.827.737.737,0,0,0,.3.427.955.955,0,0,0,.573.169,4.369,4.369,0,0,0,1.362-.325l.29,2.629a6.75,6.75,0,0,1-2.677.506,4.249,4.249,0,0,1-1.653-.308,2.394,2.394,0,0,1-1.079-.8,3.13,3.13,0,0,1-.476-1.32,16.289,16.289,0,0,1-.109-2.388v-5.584h-1.555v-2.7H164.8v-2.544l3.4-1.978v4.522Z" fill="#fff"/>
      <path id="Path_22" data-name="Path 22" d="M180.282,305.26l3.377.566a5.537,5.537,0,0,1-2.056,2.828,6.037,6.037,0,0,1-3.516.971,5.728,5.728,0,0,1-4.944-2.183,7.324,7.324,0,0,1-1.267-4.414,7.069,7.069,0,0,1,1.665-4.986,5.479,5.479,0,0,1,4.209-1.8,5.686,5.686,0,0,1,4.51,1.887q1.651,1.889,1.58,5.783h-8.49a3.432,3.432,0,0,0,.819,2.346,2.569,2.569,0,0,0,1.954.838,2.073,2.073,0,0,0,1.339-.435A2.676,2.676,0,0,0,180.282,305.26Zm.193-3.425a3.258,3.258,0,0,0-.76-2.237,2.329,2.329,0,0,0-1.76-.766,2.357,2.357,0,0,0-1.834.808,3.128,3.128,0,0,0-.711,2.195Z" fill="#fff"/>
      <path id="Path_23" data-name="Path 23" d="M189.846,309.336h-3.389V296.528H189.6v1.821a5.463,5.463,0,0,1,1.454-1.7,2.666,2.666,0,0,1,1.465-.41,4.3,4.3,0,0,1,2.231.639l-1.049,2.955a2.977,2.977,0,0,0-1.592-.556,1.881,1.881,0,0,0-1.206.393,2.678,2.678,0,0,0-.778,1.417,20.135,20.135,0,0,0-.283,4.293Z" fill="#fff"/>
      <path id="Path_24" data-name="Path 24" d="M206.6,309.336l-5.162-12.808h3.558l2.412,6.536.7,2.184c.185-.556.3-.921.35-1.1.112-.362.233-.723.361-1.086l2.436-6.536h3.486l-5.089,12.808Z" fill="#fff"/>
      <path id="Path_25" data-name="Path 25" d="M216.027,302.751a6.926,6.926,0,0,1,.833-3.268,5.714,5.714,0,0,1,2.357-2.412,7,7,0,0,1,3.408-.832,6.394,6.394,0,0,1,4.763,1.887,6.524,6.524,0,0,1,1.857,4.77,6.6,6.6,0,0,1-1.875,4.818,6.339,6.339,0,0,1-4.722,1.911,7.432,7.432,0,0,1-3.358-.8,5.453,5.453,0,0,1-2.43-2.333A7.772,7.772,0,0,1,216.027,302.751Zm3.474.181a4.246,4.246,0,0,0,.9,2.919,2.959,2.959,0,0,0,4.456,0,4.3,4.3,0,0,0,.9-2.943,4.22,4.22,0,0,0-.9-2.894,2.955,2.955,0,0,0-4.456,0A4.242,4.242,0,0,0,219.5,302.932Z" fill="#fff"/>
      <path id="Path_26" data-name="Path 26" d="M230.705,305.682l3.4-.519a2.493,2.493,0,0,0,.881,1.5,2.972,2.972,0,0,0,1.857.512,3.345,3.345,0,0,0,1.978-.483,1.075,1.075,0,0,0,.446-.9.889.889,0,0,0-.241-.639,2.705,2.705,0,0,0-1.134-.446,18.268,18.268,0,0,1-5.2-1.652,3.3,3.3,0,0,1-1.519-2.883,3.551,3.551,0,0,1,1.314-2.8,6.136,6.136,0,0,1,4.076-1.134,7.111,7.111,0,0,1,3.908.856,4.38,4.38,0,0,1,1.761,2.533l-3.2.591a1.984,1.984,0,0,0-.778-1.147,2.856,2.856,0,0,0-1.634-.4,3.684,3.684,0,0,0-1.918.374.8.8,0,0,0-.386.687.75.75,0,0,0,.338.616,12.772,12.772,0,0,0,3.166.952,9.42,9.42,0,0,1,3.78,1.508,3.13,3.13,0,0,1,1.062,2.52,3.868,3.868,0,0,1-1.472,3.027,6.513,6.513,0,0,1-4.353,1.266,7.148,7.148,0,0,1-4.143-1.061A4.887,4.887,0,0,1,230.705,305.682Z" fill="#fff"/>
      <path id="Path_27" data-name="Path 27" d="M264.243,309.336H261.1v-1.882a5.085,5.085,0,0,1-1.851,1.635,4.763,4.763,0,0,1-2.153.536,4.881,4.881,0,0,1-3.781-1.778,7.237,7.237,0,0,1-1.574-4.963,7.153,7.153,0,0,1,1.532-4.951,4.994,4.994,0,0,1,3.871-1.694,4.794,4.794,0,0,1,3.714,1.785v-6.368h3.389Zm-9.045-6.682a5.861,5.861,0,0,0,.567,2.967,2.561,2.561,0,0,0,2.292,1.327,2.494,2.494,0,0,0,1.989-.995,4.59,4.59,0,0,0,.821-2.973,5.028,5.028,0,0,0-.8-3.177,2.519,2.519,0,0,0-2.039-.971,2.548,2.548,0,0,0-2.02.958A4.339,4.339,0,0,0,255.2,302.654Z" fill="#fff"/>
      <path id="Path_28" data-name="Path 28" d="M275,305.26l3.377.566a5.531,5.531,0,0,1-2.056,2.828,6.032,6.032,0,0,1-3.515.971,5.731,5.731,0,0,1-4.945-2.183,7.331,7.331,0,0,1-1.266-4.414,7.073,7.073,0,0,1,1.664-4.986,5.481,5.481,0,0,1,4.209-1.8,5.687,5.687,0,0,1,4.511,1.887q1.651,1.889,1.58,5.783h-8.491a3.432,3.432,0,0,0,.82,2.346,2.569,2.569,0,0,0,1.954.838,2.073,2.073,0,0,0,1.339-.435A2.682,2.682,0,0,0,275,305.26Zm.194-3.425a3.263,3.263,0,0,0-.76-2.237,2.329,2.329,0,0,0-1.761-.766,2.355,2.355,0,0,0-1.833.808,3.129,3.129,0,0,0-.712,2.195Zm-4.33-6.875,1.664-3.606h3.8l-3.316,3.606Z" fill="#fff"/>
      <path id="Path_29" data-name="Path 29" d="M281.224,296.528h3.159v1.882a4.728,4.728,0,0,1,1.665-1.568,4.585,4.585,0,0,1,2.327-.6,4.884,4.884,0,0,1,3.787,1.748,7.079,7.079,0,0,1,1.556,4.872,7.3,7.3,0,0,1-1.568,4.988,4.888,4.888,0,0,1-3.8,1.778,4.318,4.318,0,0,1-1.923-.422,6.5,6.5,0,0,1-1.816-1.447v6.452h-3.388Zm3.352,6.187a4.932,4.932,0,0,0,.857,3.19,2.616,2.616,0,0,0,2.086,1.031,2.45,2.45,0,0,0,1.966-.947,4.88,4.88,0,0,0,.784-3.105,4.627,4.627,0,0,0-.809-2.991,2.5,2.5,0,0,0-2-.977,2.6,2.6,0,0,0-2.062.959A4.271,4.271,0,0,0,284.576,302.715Z" fill="#fff"/>
      <path id="Path_30" data-name="Path 30" d="M296.407,309.336v-17.68H299.8v17.68Z" fill="#fff"/>
      <path id="Path_31" data-name="Path 31" d="M305.8,300.436l-3.075-.555a4.787,4.787,0,0,1,1.785-2.75,6.537,6.537,0,0,1,3.762-.892,8.124,8.124,0,0,1,3.377.536,3.375,3.375,0,0,1,1.562,1.363,7,7,0,0,1,.452,3.033l-.036,3.956a13.676,13.676,0,0,0,.163,2.49,7.219,7.219,0,0,0,.609,1.719h-3.353q-.133-.338-.325-1c-.057-.2-.1-.334-.121-.4a6.1,6.1,0,0,1-1.857,1.266,5.33,5.33,0,0,1-2.111.422,4.359,4.359,0,0,1-3.117-1.073,3.566,3.566,0,0,1-1.14-2.713,3.641,3.641,0,0,1,.519-1.936,3.379,3.379,0,0,1,1.453-1.3,11.32,11.32,0,0,1,2.7-.79,18.5,18.5,0,0,0,3.292-.832v-.338a1.752,1.752,0,0,0-.482-1.393,2.888,2.888,0,0,0-1.821-.416,2.427,2.427,0,0,0-1.411.356A2.468,2.468,0,0,0,305.8,300.436Zm4.534,2.75q-.651.216-2.062.518a6.21,6.21,0,0,0-1.845.591,1.413,1.413,0,0,0-.663,1.194,1.661,1.661,0,0,0,.53,1.23,1.856,1.856,0,0,0,1.351.518,2.935,2.935,0,0,0,1.749-.6,2.128,2.128,0,0,0,.808-1.122,6.725,6.725,0,0,0,.132-1.653Z" fill="#fff"/>
      <path id="Path_32" data-name="Path 32" d="M328.173,300.315l-3.341.6a2.43,2.43,0,0,0-.766-1.508,2.309,2.309,0,0,0-1.549-.506,2.53,2.53,0,0,0-2.02.874,4.478,4.478,0,0,0-.754,2.925,5.178,5.178,0,0,0,.766,3.22,2.514,2.514,0,0,0,2.056.94,2.279,2.279,0,0,0,1.58-.549,3.3,3.3,0,0,0,.868-1.886l3.329.566a5.9,5.9,0,0,1-1.99,3.461,6.16,6.16,0,0,1-3.944,1.17,5.866,5.866,0,0,1-4.48-1.772,8.077,8.077,0,0,1,.006-9.847,5.952,5.952,0,0,1,4.534-1.767,6.191,6.191,0,0,1,3.721,1.007A5.58,5.58,0,0,1,328.173,300.315Z" fill="#fff"/>
      <path id="Path_33" data-name="Path 33" d="M338.158,305.26l3.377.566a5.531,5.531,0,0,1-2.056,2.828,6.035,6.035,0,0,1-3.516.971,5.729,5.729,0,0,1-4.944-2.183,7.331,7.331,0,0,1-1.267-4.414,7.074,7.074,0,0,1,1.665-4.986,5.48,5.48,0,0,1,4.209-1.8,5.685,5.685,0,0,1,4.51,1.887q1.653,1.889,1.58,5.783h-8.49a3.427,3.427,0,0,0,.82,2.346,2.567,2.567,0,0,0,1.954.838,2.07,2.07,0,0,0,1.338-.435A2.676,2.676,0,0,0,338.158,305.26Zm.194-3.425a3.268,3.268,0,0,0-.76-2.237,2.446,2.446,0,0,0-3.594.042,3.124,3.124,0,0,0-.712,2.195Z" fill="#fff"/>
      <path id="Path_34" data-name="Path 34" d="M344.225,296.528h3.123v1.749a5.026,5.026,0,0,1,3.992-2.038,4.3,4.3,0,0,1,2.135.507,3.889,3.889,0,0,1,1.483,1.531,5.915,5.915,0,0,1,1.821-1.531,4.461,4.461,0,0,1,2.086-.507,4.645,4.645,0,0,1,2.388.573,3.505,3.505,0,0,1,1.459,1.682,7.278,7.278,0,0,1,.35,2.653v8.189h-3.389v-7.32a5.446,5.446,0,0,0-.349-2.46,1.6,1.6,0,0,0-1.448-.724,2.311,2.311,0,0,0-1.338.434,2.41,2.41,0,0,0-.9,1.272,9.157,9.157,0,0,0-.277,2.648v6.15h-3.389v-7.019a9.716,9.716,0,0,0-.181-2.412,1.526,1.526,0,0,0-.56-.807,1.769,1.769,0,0,0-1.032-.266,2.471,2.471,0,0,0-1.411.422,2.313,2.313,0,0,0-.9,1.218,9.046,9.046,0,0,0-.272,2.641v6.223h-3.388Z" fill="#fff"/>
      <path id="Path_35" data-name="Path 35" d="M373.856,305.26l3.377.566a5.537,5.537,0,0,1-2.056,2.828,6.037,6.037,0,0,1-3.516.971,5.729,5.729,0,0,1-4.944-2.183,7.331,7.331,0,0,1-1.267-4.414,7.069,7.069,0,0,1,1.665-4.986,5.48,5.48,0,0,1,4.209-1.8,5.686,5.686,0,0,1,4.51,1.887q1.653,1.889,1.58,5.783h-8.49a3.427,3.427,0,0,0,.82,2.346,2.565,2.565,0,0,0,1.953.838,2.073,2.073,0,0,0,1.339-.435A2.676,2.676,0,0,0,373.856,305.26Zm.193-3.425a3.263,3.263,0,0,0-.759-2.237,2.332,2.332,0,0,0-1.761-.766,2.358,2.358,0,0,0-1.834.808,3.129,3.129,0,0,0-.711,2.195Z" fill="#fff"/>
      <path id="Path_36" data-name="Path 36" d="M391.825,309.336h-3.389V302.8a10.1,10.1,0,0,0-.217-2.684,1.884,1.884,0,0,0-.7-.946,2.012,2.012,0,0,0-1.176-.338,2.721,2.721,0,0,0-1.58.482,2.435,2.435,0,0,0-.959,1.279,11.039,11.039,0,0,0-.259,2.942v5.8h-3.389V296.528H383.3v1.882a5.248,5.248,0,0,1,6.271-1.767,3.436,3.436,0,0,1,1.4,1.031,3.743,3.743,0,0,1,.663,1.424,10.547,10.547,0,0,1,.187,2.278Z" fill="#fff"/>
      <path id="Path_37" data-name="Path 37" d="M401.136,296.528v2.7H398.82v5.163a12.662,12.662,0,0,0,.067,1.827.737.737,0,0,0,.3.427.955.955,0,0,0,.573.169,4.38,4.38,0,0,0,1.363-.325l.289,2.629a6.75,6.75,0,0,1-2.677.506,4.253,4.253,0,0,1-1.653-.308,2.394,2.394,0,0,1-1.079-.8,3.13,3.13,0,0,1-.476-1.32,16.437,16.437,0,0,1-.109-2.388v-5.584h-1.555v-2.7h1.555v-2.544l3.4-1.978v4.522Z" fill="#fff"/>
      <path id="Path_38" data-name="Path 38" d="M402.293,305.682l3.4-.519a2.493,2.493,0,0,0,.881,1.5,2.972,2.972,0,0,0,1.857.512,3.345,3.345,0,0,0,1.978-.483,1.075,1.075,0,0,0,.446-.9.893.893,0,0,0-.241-.639,2.705,2.705,0,0,0-1.134-.446,18.268,18.268,0,0,1-5.2-1.652,3.3,3.3,0,0,1-1.519-2.883,3.551,3.551,0,0,1,1.314-2.8,6.136,6.136,0,0,1,4.076-1.134,7.113,7.113,0,0,1,3.908.856,4.38,4.38,0,0,1,1.761,2.533l-3.2.591a1.983,1.983,0,0,0-.777-1.147,2.856,2.856,0,0,0-1.634-.4,3.684,3.684,0,0,0-1.918.374.8.8,0,0,0-.386.687.75.75,0,0,0,.338.616,12.756,12.756,0,0,0,3.166.952,9.427,9.427,0,0,1,3.78,1.508,3.13,3.13,0,0,1,1.062,2.52,3.868,3.868,0,0,1-1.472,3.027,6.513,6.513,0,0,1-4.353,1.266,7.148,7.148,0,0,1-4.143-1.061A4.893,4.893,0,0,1,402.293,305.682Z" fill="#fff"/>
    </g>
  </g>
</svg>
